<?xml version="1.0" encoding="UTF-8" standalone="no"?>
<svg
   xmlns:dc="http://purl.org/dc/elements/1.1/"
   xmlns:cc="http://creativecommons.org/ns#"
   xmlns:rdf="http://www.w3.org/1999/02/22-rdf-syntax-ns#"
   xmlns:svg="http://www.w3.org/2000/svg"
   xmlns="http://www.w3.org/2000/svg"
   xmlns:sodipodi="http://sodipodi.sourceforge.net/DTD/sodipodi-0.dtd"
   xmlns:inkscape="http://www.inkscape.org/namespaces/inkscape"
   stroke-miterlimit="10"
   font-weight="normal"
   font-style="normal"
   font-size="12"
   id="svg4157"
   version="1.1"
   inkscape:version="0.92.0 r15299"
   sodipodi:docname="icons.svg"
   width="106.6666641"
   height="106.6666641"
   style="font-style:normal;font-weight:normal;font-size:12px;font-family:Dialog;color-interpolation:auto;fill:#000000;fill-opacity:1;stroke:#000000;stroke-width:1;stroke-linecap:square;stroke-linejoin:miter;stroke-miterlimit:10;stroke-dasharray:none;stroke-dashoffset:0;stroke-opacity:1;color-rendering:auto;image-rendering:auto;shape-rendering:auto;text-rendering:auto">
  <metadata
     id="metadata4168">
    <rdf:RDF>
      <cc:Work
         rdf:about="">
        <dc:format>image/svg+xml</dc:format>
        <dc:type
           rdf:resource="http://purl.org/dc/dcmitype/StillImage" />
        <dc:title />
      </cc:Work>
    </rdf:RDF>
  </metadata>
  <sodipodi:namedview
     pagecolor="#979797"
     bordercolor="#666666"
     borderopacity="1"
     objecttolerance="10"
     gridtolerance="10"
     guidetolerance="10"
     inkscape:pageopacity="0"
     inkscape:pageshadow="2"
     inkscape:window-width="1920"
     inkscape:window-height="1017"
     id="namedview4166"
     showgrid="false"
     inkscape:zoom="0.1179815171"
     inkscape:cx="-1357.341304"
     inkscape:cy="2347.922516"
     inkscape:window-x="1592"
     inkscape:window-y="-8"
     inkscape:window-maximized="1"
     inkscape:current-layer="svg4157" />
  <!--Unicode Character 'GLOBE WITH MERIDIANS' (U+1F310)-->
  <defs
     id="genericDefs">
    <clipPath
       clipPathUnits="userSpaceOnUse"
       id="clipPath4756">
      <rect
         style="color:#000000;clip-rule:nonzero;display:inline;overflow:visible;visibility:visible;opacity:0.5440000048;isolation:auto;mix-blend-mode:normal;color-interpolation:sRGB;color-interpolation-filters:linearRGB;solid-color:#000000;solid-opacity:1;fill:none;fill-opacity:1;fill-rule:nonzero;stroke:none;stroke-width:10.8999996185;stroke-linecap:butt;stroke-linejoin:miter;stroke-miterlimit:10;stroke-dasharray:none;stroke-dashoffset:0;stroke-opacity:1;marker:none;color-rendering:auto;image-rendering:auto;shape-rendering:auto;text-rendering:auto;enable-background:accumulate"
         id="rect4758"
         width="422.033905"
         height="483.0508423"
         x="-254.2372894"
         y="-3.389830351" />
    </clipPath>
  </defs>
  <g
     id="g4712"
     transform="translate(-366.9167431,-56.99080768)">
    <rect
       inkscape:export-ydpi="4.860000134"
       inkscape:export-xdpi="4.860000134"
       inkscape:export-filename="C:\bso\packages\bso-client\src\img\globe.png"
       y="-234.944931"
       x="-227.0703583"
       height="426.6666565"
       width="426.6666565"
       id="rect4710"
       style="color:#000000;clip-rule:nonzero;display:inline;overflow:visible;visibility:visible;opacity:0.5440000048;isolation:auto;mix-blend-mode:normal;color-interpolation:sRGB;color-interpolation-filters:linearRGB;solid-color:#000000;solid-opacity:1;fill:none;fill-opacity:1;fill-rule:nonzero;stroke:none;stroke-width:53.3333320618;stroke-linecap:butt;stroke-linejoin:miter;stroke-miterlimit:4;stroke-dasharray:none;stroke-dashoffset:0;stroke-opacity:1;marker:none;color-rendering:auto;image-rendering:auto;shape-rendering:auto;text-rendering:auto;enable-background:accumulate" />
    <g
       inkscape:export-ydpi="4.860000134"
       inkscape:export-xdpi="4.860000134"
       inkscape:export-filename="C:\bso\packages\bso-client\src\img\globe.png"
       style="fill:#ffffff;fill-opacity:1;stroke:#ffffff;stroke-width:9.9086666107;stroke-miterlimit:10;stroke-dasharray:none;stroke-opacity:1"
       transform="matrix(1.100047081,0,0,1.100047081,-196.2347843,-263.5118963)"
       id="g4160">
      <g
         style="fill:#ffffff;fill-opacity:1;stroke:#ffffff;stroke-width:9.9086666107;stroke-miterlimit:10;stroke-dasharray:none;stroke-opacity:1"
         id="g4162">
        <path
           style="fill:#ffffff;fill-opacity:1;stroke:#ffffff;stroke-width:10.5692443848;stroke-miterlimit:10;stroke-dasharray:none;stroke-opacity:1"
           inkscape:connector-curvature="0"
           id="path4164"
           d="M 319.4999467,219.8999467 Q 319.4999467,283.4999467 274.5000533,328.5000533 229.4999467,373.4999467 165.8999467,373.4999467 102.2999467,373.4999467 57.30005333,328.5000533 12.29994667,283.4999467 12.29994667,219.8999467 12.29994667,156.2999467 57.30005333,111.3000533 102.2999467,66.29994667 165.8999467,66.29994667 229.4999467,66.29994667 274.5000533,111.3000533 319.4999467,156.2999467 319.4999467,219.8999467 Z M 263.7000533,113.0999467 Q 235.6500267,87.45002667 199.0500267,78.90005333 216.6,106.2 228.4500267,136.9499733 247.9499733,126.9000533 263.7000533,113.0999467 Z M 310.8,215.5499733 Q 309.1499733,159.6 270.1499733,119.2500267 253.0500267,134.4 231.6,145.2 244.6500267,182.4 245.5499733,215.5499733 Z M 220.3499733,140.6999467 Q 207.1499733,105.8999467 186.9000533,76.50005333 178.0500267,75.14997333 170.2500267,75 V 153.4500267 Q 194.4,152.4 220.3499733,140.6999467 Z M 161.4,153.4500267 V 75 Q 153.7499733,75.14997333 144.9000533,76.50005333 124.8,105.8999467 111.4500267,140.6999467 137.4,152.4 161.4,153.4500267 Z M 236.6999467,215.5499733 Q 235.8,184.5000533 223.4999467,149.0999467 196.2,161.2500267 170.2500267,162.2999467 V 215.5499733 Z M 310.8,224.4 H 245.5499733 Q 244.6500267,257.4 231.6,294.6 253.0500267,305.5499733 270.1499733,320.5499733 309.1499733,280.3499733 310.8,224.4 Z M 132.7499733,78.90005333 Q 96.14997333,87.45002667 68.10005333,113.0999467 83.85002667,126.9000533 103.3499733,136.9499733 115.2,106.3499733 132.7499733,78.90005333 Z M 161.4,215.5499733 V 162.2999467 Q 135.6,161.2500267 108.2999467,149.0999467 96,184.5000533 95.09994667,215.5499733 Z M 236.6999467,224.4 H 170.2500267 V 277.4999467 Q 196.2,278.5499733 223.4999467,290.6999467 235.8,255.3000533 236.6999467,224.4 Z M 263.7000533,326.6999467 Q 247.9499733,312.9000533 228.4500267,302.8500267 216.6,333.4500267 199.0500267,360.9000533 235.6500267,352.3499733 263.7000533,326.6999467 Z M 100.2,145.2 Q 78.74997333,134.2500267 61.65002667,119.2500267 22.65002667,159.4500267 21,215.5499733 H 86.25002667 Q 87.14997333,182.4 100.2,145.2 Z M 161.4,277.4999467 V 224.4 H 95.09994667 Q 96,255.3000533 108.2999467,290.6999467 135.6,278.5499733 161.4,277.4999467 Z M 220.3499733,299.0999467 Q 194.4,287.4 170.2500267,286.3499733 V 364.8 Q 178.0500267,364.6500267 186.9000533,363.3000533 207,333.8999467 220.3499733,299.0999467 Z M 161.4,364.8 V 286.3499733 Q 137.4,287.4 111.4500267,299.0999467 124.6500267,333.8999467 144.9000533,363.3000533 153.7499733,364.6500267 161.4,364.8 Z M 100.2,294.6 Q 87.14997333,257.4 86.25002667,224.4 H 21 Q 22.65002667,280.2 61.65002667,320.5499733 78.74997333,305.5499733 100.2,294.6 Z M 132.7499733,360.9000533 Q 115.2,333.4500267 103.3499733,302.8500267 83.85002667,312.9000533 68.10005333,326.6999467 96.14997333,352.3499733 132.7499733,360.9000533 Z" />
      </g>
    </g>
  </g>
  <g
     transform="translate(1157.089198,-10.47633828)"
     id="g4718"
     style="stroke:none">
    <rect
       inkscape:export-ydpi="4.860000134"
       inkscape:export-xdpi="4.860000134"
       y="-281.4594116"
       x="-1324.409668"
       height="426.6666565"
       width="426.6666565"
       id="rect4155"
       style="color:#000000;clip-rule:nonzero;display:inline;overflow:visible;visibility:visible;opacity:0.5440000048;isolation:auto;mix-blend-mode:normal;color-interpolation:sRGB;color-interpolation-filters:linearRGB;solid-color:#000000;solid-opacity:1;fill:none;fill-opacity:1;fill-rule:nonzero;stroke:none;stroke-width:53.3333320618;stroke-linecap:butt;stroke-linejoin:miter;stroke-miterlimit:4;stroke-dasharray:none;stroke-dashoffset:0;stroke-opacity:1;marker:none;color-rendering:auto;image-rendering:auto;shape-rendering:auto;text-rendering:auto;enable-background:accumulate" />
    <path
       inkscape:export-ydpi="4.860000134"
       inkscape:export-xdpi="4.860000134"
       inkscape:connector-curvature="0"
       id="path4153"
       d="M -1240.179731,65.83481373 -1248.672415,57.34213061 V -60.61180629 -178.5657433 L -1240.179731,-187.0584267 -1231.687047,-195.5511102 H -1135.645339 -1039.60363 L -1056.643406,-178.2511993 -1073.683181,-160.9512885 H -1143.877887 -1214.072593 V -60.61180629 39.72767595 H -1113.733111 -1013.393629 V -18.37162458 -76.47092538 L -998.5577376,-91.03124964 C -990.3979981,-99.03942815 -982.6130382,-105.5915742 -981.2578269,-105.5915742 -979.9026156,-105.5915742 -978.7938076,-68.93149059 -978.7938076,-24.12472179 V 57.34213061 L -987.2864887,65.83481373 -995.7791727,74.32749741 H -1113.733111 -1231.687047 Z M -1169.092826,3.199359529 C -1169.092826,-7.879217924 -1161.07525,-50.23185986 -1158.978016,-50.23185986 -1157.778621,-50.23185986 -1146.042582,-39.39409716 -1132.897931,-26.14794275 -1106.750244,0.2016509265 -1106.532453,-0.8321643358 -1139.453439,4.969667974 -1166.454581,9.728215743 -1169.092826,9.570638191 -1169.092826,3.199359529 Z M -1121.541082,-39.00496127 -1148.287396,-65.90907052 -1075.649043,-138.4856494 -1003.010688,-211.0622284 -976.2163616,-184.267904 -949.4220385,-157.4735797 -1022.108402,-84.78721584 -1094.794766,-12.10085203 Z M -967.8133023,-196.6765082 -992.9894195,-222.0217811 -977.3189638,-236.4663028 C -968.7002147,-244.4107897 -959.0291135,-250.9108245 -955.8276335,-250.9108245 -948.3024768,-250.9108245 -909.5941646,-212.2755815 -909.5941646,-204.7646302 -909.5941646,-198.034046 -932.7832833,-171.331235 -938.6282228,-171.331235 -940.8331504,-171.331235 -953.9664371,-182.7366078 -967.8133023,-196.6765082 Z"
       style="fill:#ffffff;fill-opacity:1;stroke:none;stroke-width:1.0666667223" />
  </g>
  <g
     id="g4784"
     inkscape:export-filename="C:\bso\packages\bso-client\src\img\audio.png"
     inkscape:export-xdpi="4.860000134"
     inkscape:export-ydpi="4.860000134">
    <path
       sodipodi:nodetypes="ssssssssssssssssssssssssssssssssssssssssssssssssss"
       inkscape:connector-curvature="0"
       id="path4771"
       d="M 682.4048973,-251.8229108 C 670.6461922,-251.9027222 657.5851411,-251.1900348 651.7397212,-249.8498474 623.0541516,-243.2730678 598.1531311,-229.0664021 579.6979034,-208.7482038 570.8250427,-198.9796684 564.9089753,-190.2862545 558.1172809,-177.034958 552.9386677,-166.9309489 552.6307877,-165.9568359 552.3115513,-158.6677751 552.0029958,-151.6225925 552.1930441,-150.5816219 554.5499974,-146.3890125 558.399906,-139.540696 563.5337012,-136.3425262 571.3883445,-135.8986992 574.9680432,-135.6964282 579.229177,-136.0367287 581.1825087,-136.6813862 584.5707216,-137.7995974 592.6631998,-144.9239419 592.6631999,-146.7890098 592.6631999,-148.7613102 598.6941929,-160.4942373 603.3535117,-167.5850222 613.3737007,-182.8342474 630.9143058,-197.0376541 647.124368,-203.0290119 659.8562059,-207.7347926 679.5079135,-209.816951 692.3548297,-207.8193639 722.957314,-203.0609359 748.0158421,-184.4271915 761.1774384,-156.6427889 767.3955738,-143.5161765 769.8927637,-132.5903061 769.8927638,-118.5065098 769.8927638,-105.3004208 768.3374851,-96.47009459 763.9466503,-84.74712397 756.7998761,-65.66614495 745.7367054,-52.23887488 727.068055,-39.98781294 702.7092514,-24.00266124 693.0145115,-10.40174637 687.7413995,15.18296571 683.5277932,35.62704063 679.6500485,42.19697956 668.3549929,48.03274226 663.1213129,50.73680274 661.4632078,51.1363409 655.3723888,51.15772099 649.2412624,51.17924276 647.682918,50.8128363 642.5993986,48.14812609 639.4151739,46.47899982 633.2113014,42.48529927 628.812954,39.27510956 618.4191142,31.68903359 617.6680731,31.33670201 611.9380687,31.33670201 605.8859572,31.33670201 600.0960461,34.01985983 596.3227903,38.57319118 592.7535346,42.88034811 590.4621685,50.50239164 591.2805169,55.34615409 592.4768038,62.42691569 603.0049335,75.4304793 613.1861372,82.40366236 618.8207734,86.26286732 629.9132347,91.22819902 637.4321262,93.25551167 644.8360099,95.25181494 658.6920281,95.04222306 669.4184471,92.77089958 683.6648863,89.75421057 698.1416226,81.89530042 708.6393342,71.48258285 719.5142694,60.69569596 725.5441693,48.27884442 729.1545794,29.23287011 732.2440848,12.9348199 736.4379863,5.650085494 745.892927,0.1561447619 768.0240128,-12.70346787 790.8043633,-37.78316234 801.7213936,-61.30497574 810.7121774,-80.67650225 812.4294794,-89.51184382 812.5097818,-116.8161366 812.5784674,-140.1705621 811.838619,-146.6471051 807.6559685,-159.2773863 799.5605365,-183.7230306 784.1299484,-206.0081495 763.8928047,-222.4788796 746.1601113,-236.9112723 722.6717574,-247.3713532 700.3240062,-250.7883025 696.0477306,-251.4421409 689.4601202,-251.775024 682.4048973,-251.8229108 Z M 677.0587797,-182.8137648 C 671.4999711,-182.7521297 666.126774,-182.170783 661.6781152,-181.0330076 641.7290386,-175.9308931 623.4103494,-159.3917551 617.5611074,-141.2005862 614.7626771,-132.4974557 615.3389594,-127.4016895 619.6053243,-123.1353245 627.6269959,-115.1136529 640.389744,-120.2693851 646.9916765,-134.1987107 657.3059731,-155.9607023 686.4009333,-160.6415296 706.1624279,-143.7178768 713.2227337,-137.6714636 714.3843238,-135.4004675 716.9085088,-122.7180196 719.4534127,-109.931471 720.9529638,-106.2330881 724.956531,-102.8643084 727.4981456,-100.7256808 728.4176068,-100.5108433 733.6064721,-100.8412454 737.5594321,-101.0929508 740.2250283,-101.8127653 741.9602614,-103.0969992 745.3639084,-105.6160146 746.7098855,-108.6079211 747.396763,-115.1796094 748.593566,-126.6300019 742.1932156,-145.9175419 733.3391663,-157.5466289 726.7472778,-166.2045483 715.3105502,-174.2703648 702.9701421,-178.963791 696.10263,-181.575711 686.3234607,-182.9164898 677.0587797,-182.8137648 Z"
       style="fill:#ffffff;fill-opacity:1;stroke:none;stroke-width:1" />
    <rect
       style="color:#000000;clip-rule:nonzero;display:inline;overflow:visible;visibility:visible;opacity:0.5440000048;isolation:auto;mix-blend-mode:normal;color-interpolation:sRGB;color-interpolation-filters:linearRGB;solid-color:#000000;solid-opacity:1;fill:none;fill-opacity:1;fill-rule:nonzero;stroke:none;stroke-width:53.3333320618;stroke-linecap:butt;stroke-linejoin:miter;stroke-miterlimit:4;stroke-dasharray:none;stroke-dashoffset:0;stroke-opacity:1;marker:none;color-rendering:auto;image-rendering:auto;shape-rendering:auto;text-rendering:auto;enable-background:accumulate"
       id="rect4778"
       width="426.6666565"
       height="426.6666565"
       x="469.022644"
       y="-291.93573"
       inkscape:export-xdpi="4.860000134"
       inkscape:export-ydpi="4.860000134" />
  </g>
  <g
     id="g4839"
     inkscape:export-filename="C:\bso\packages\bso-client\src\img\edit-audio.png"
     inkscape:export-xdpi="4.860000134"
     inkscape:export-ydpi="4.860000134">
    <rect
       inkscape:export-ydpi="4.860000134"
       inkscape:export-xdpi="4.860000134"
       y="-291.93573"
       x="1647.779663"
       height="426.6666565"
       width="426.6666565"
       id="rect4798"
       style="color:#000000;clip-rule:nonzero;display:inline;overflow:visible;visibility:visible;opacity:0.5440000048;isolation:auto;mix-blend-mode:normal;color-interpolation:sRGB;color-interpolation-filters:linearRGB;solid-color:#000000;solid-opacity:1;fill:none;fill-opacity:1;fill-rule:nonzero;stroke:none;stroke-width:53.3333320618;stroke-linecap:butt;stroke-linejoin:miter;stroke-miterlimit:4;stroke-dasharray:none;stroke-dashoffset:0;stroke-opacity:1;marker:none;color-rendering:auto;image-rendering:auto;shape-rendering:auto;text-rendering:auto;enable-background:accumulate" />
    <path
       sodipodi:nodetypes="ssssscccccccccscsssss"
       style="fill:#ffffff;fill-opacity:1;stroke:none;stroke-width:1.0666667223"
       d="M 1777.826879,95.7738686 C 1777.826879,84.69529115 1785.844454,42.34264921 1787.941689,42.34264921 1789.141084,42.34264921 1800.877122,53.1804119 1814.021774,66.42656631 1840.16946,92.77615999 1840.387251,91.74234474 1807.466266,97.54417705 1780.465123,102.3027248 1777.826879,102.1451473 1777.826879,95.7738686 Z M 1825.378623,53.5695478 1798.632308,26.66543855 1871.270661,-45.91114027 1943.909017,-118.4877193 1970.703343,-91.69339488 1997.497666,-64.89907061 1924.811302,7.787293226 1852.124939,80.47365703 Z M 1979.106402,-104.101999 1953.930285,-129.447272 1969.60074,-143.8917937 C 1978.21949,-151.8362805 1987.890591,-158.3363154 1991.092071,-158.3363154 1998.617228,-158.3363154 2037.32554,-119.7010724 2037.32554,-112.1901211 2037.32554,-105.4595369 2014.136421,-78.75672587 2008.291482,-78.75672587 2006.086554,-78.75672587 1992.953267,-90.16209867 1979.106402,-104.101999 Z"
       id="path4792"
       inkscape:connector-curvature="0"
       inkscape:export-xdpi="4.860000134"
       inkscape:export-ydpi="4.860000134" />
    <path
       style="fill:#ffffff;fill-opacity:1;stroke:none;stroke-width:1"
       d="M 1793.352781,-260.424514 C 1784.615677,-260.4838165 1774.910886,-259.9542662 1770.567548,-258.958463 1749.253228,-254.0716998 1730.750951,-243.5156806 1717.038111,-228.4185921 1710.445284,-221.1602495 1706.049452,-214.7007574 1701.003001,-204.854609 1697.15512,-197.3469984 1696.926356,-196.6232005 1696.689152,-191.2071889 1696.459886,-185.9723869 1696.601098,-185.1989115 1698.352391,-182.0836651 1701.212999,-176.995141 1705.027579,-174.6187958 1710.863836,-174.2890178 1713.523669,-174.1387237 1716.689831,-174.3915782 1718.141221,-174.8705799 1720.658775,-175.7014476 1726.671753,-180.9950694 1726.671753,-182.3808762 1726.671753,-183.8463601 1731.152978,-192.5643103 1734.615005,-197.8329964 1742.060334,-209.1636715 1755.093581,-219.717269 1767.138189,-224.1690447 1776.598363,-227.6655943 1791.200226,-229.2127063 1800.745907,-227.7284336 1823.484558,-224.1927652 1842.103868,-210.3472812 1851.883365,-189.7025577 1856.503644,-179.9490535 1858.359138,-171.8307731 1858.359138,-161.3660498 1858.359138,-151.5534921 1857.203515,-144.9922697 1853.940981,-136.2817175 1848.630693,-122.1039235 1840.410394,-112.1270209 1826.538974,-103.0240796 1808.439582,-91.14658691 1801.236071,-81.0406605 1797.317977,-62.03037922 1794.187129,-46.83976017 1791.305837,-41.95807979 1782.913241,-37.62191645 1779.024444,-35.61271071 1777.792417,-35.31584074 1773.266739,-35.29995462 1768.71111,-35.28396324 1767.55321,-35.55621529 1763.775987,-37.53618247 1761.410004,-38.77639811 1756.800323,-41.74384877 1753.532207,-44.12912515 1745.809243,-49.76582873 1745.251195,-50.02762266 1740.993613,-50.02762266 1736.496695,-50.02762266 1732.194601,-48.03394828 1729.390948,-44.65067356 1726.738875,-41.45031452 1725.036314,-35.78688586 1725.644373,-32.18781129 1726.533254,-26.92657289 1734.356,-17.26449809 1741.920969,-12.08319409 1746.107689,-9.215678042 1754.349751,-5.526273562 1759.936534,-4.019913668 1765.437863,-2.536594735 1775.73334,-2.692328388 1783.703422,-4.379996335 1794.288994,-6.621495322 1805.045684,-12.46092369 1812.845829,-20.19791479 1820.926263,-28.21292599 1825.406676,-37.43905446 1828.089329,-51.59083885 1830.384933,-63.70082539 1833.50114,-69.11362228 1840.526471,-73.19580067 1856.970595,-82.75091517 1873.897145,-101.3859518 1882.008857,-118.8634316 1888.689303,-133.2571119 1889.965315,-139.8220609 1890.024982,-160.1100471 1890.076018,-177.4631522 1889.526286,-182.2754363 1886.418441,-191.6601501 1880.403268,-209.8240666 1868.937835,-226.3826418 1853.900972,-238.6209351 1840.724998,-249.3446769 1823.272381,-257.1168605 1806.667267,-259.655766 1803.489854,-260.1415894 1798.595043,-260.3889325 1793.352781,-260.424514 Z M 1789.380439,-209.1484522 C 1785.250062,-209.1026554 1781.257601,-208.6706957 1777.952101,-207.8252911 1763.129282,-204.0342525 1749.517894,-191.7451298 1745.171715,-178.228494 1743.092389,-171.7617822 1743.520586,-167.9754605 1746.690636,-164.8054112 1752.651002,-158.8450458 1762.134142,-162.6759241 1767.039595,-173.0258705 1774.703456,-189.195745 1796.321967,-192.6737533 1811.005406,-180.0989235 1816.251445,-175.6062399 1817.114545,-173.9188153 1818.990097,-164.4953399 1820.881044,-154.9945145 1821.995261,-152.2464945 1824.970042,-149.7433806 1826.858545,-148.15431 1827.541734,-147.9946787 1831.397232,-148.2401782 1834.334412,-148.4272037 1836.315037,-148.9620495 1837.604372,-149.9162774 1840.133393,-151.7879886 1841.133499,-154.0110734 1841.643871,-158.8940537 1842.533135,-167.4020714 1837.777465,-181.7333469 1831.198614,-190.3741405 1826.300625,-196.8072589 1817.802762,-202.8004255 1808.633433,-206.2877953 1803.530646,-208.2285376 1796.264401,-209.2247803 1789.380439,-209.1484522 Z"
       id="path4796"
       inkscape:connector-curvature="0"
       sodipodi:nodetypes="ssssssssssssssssssssssssssssssssssssssssssssssssss" />
  </g>
  <g
     id="g4844"
     inkscape:export-filename="C:\bso\packages\bso-client\src\img\edit-series.png"
     inkscape:export-xdpi="4.860000134"
     inkscape:export-ydpi="4.860000134">
    <rect
       style="color:#000000;clip-rule:nonzero;display:inline;overflow:visible;visibility:visible;opacity:0.5440000048;isolation:auto;mix-blend-mode:normal;color-interpolation:sRGB;color-interpolation-filters:linearRGB;solid-color:#000000;solid-opacity:1;fill:none;fill-opacity:1;fill-rule:nonzero;stroke:none;stroke-width:53.3333320618;stroke-linecap:butt;stroke-linejoin:miter;stroke-miterlimit:4;stroke-dasharray:none;stroke-dashoffset:0;stroke-opacity:1;marker:none;color-rendering:auto;image-rendering:auto;shape-rendering:auto;text-rendering:auto;enable-background:accumulate"
       id="rect4804"
       width="426.6666565"
       height="426.6666565"
       x="2121.451904"
       y="-291.93573"
       inkscape:export-xdpi="4.860000134"
       inkscape:export-ydpi="4.860000134" />
    <path
       inkscape:export-ydpi="4.860000134"
       inkscape:export-xdpi="4.860000134"
       inkscape:connector-curvature="0"
       id="path4806"
       d="M 2251.499195,95.7738686 C 2251.499195,84.69529115 2259.51677,42.34264921 2261.614004,42.34264921 2262.813399,42.34264921 2274.549438,53.1804119 2287.69409,66.42656631 2313.841776,92.77615999 2314.059567,91.74234474 2281.138581,97.54417705 2254.137439,102.3027248 2251.499195,102.1451473 2251.499195,95.7738686 Z M 2299.050939,53.5695478 2272.304624,26.66543855 2344.942977,-45.91114027 2417.581332,-118.4877193 2444.375659,-91.69339488 2471.169982,-64.89907061 2398.483618,7.787293226 2325.797254,80.47365703 Z M 2452.778718,-104.101999 2427.602601,-129.447272 2443.273056,-143.8917937 C 2451.891806,-151.8362805 2461.562907,-158.3363154 2464.764387,-158.3363154 2472.289543,-158.3363154 2510.997856,-119.7010724 2510.997856,-112.1901211 2510.997856,-105.4595369 2487.808737,-78.75672587 2481.963797,-78.75672587 2479.758869,-78.75672587 2466.625583,-90.16209867 2452.778718,-104.101999 Z"
       style="fill:#ffffff;fill-opacity:1;stroke:none;stroke-width:1.0666667223"
       sodipodi:nodetypes="ssssscccccccccscsssss" />
    <rect
       y="-180.7909698"
       x="2160.452148"
       height="124.7457581"
       width="124.7457581"
       id="rect4810"
       style="color:#000000;clip-rule:nonzero;display:inline;overflow:visible;visibility:visible;opacity:1;isolation:auto;mix-blend-mode:normal;color-interpolation:sRGB;color-interpolation-filters:linearRGB;solid-color:#000000;solid-opacity:1;fill:#ffffff;fill-opacity:1;fill-rule:nonzero;stroke:none;stroke-width:11.626666069;stroke-linecap:butt;stroke-linejoin:miter;stroke-miterlimit:10;stroke-dasharray:none;stroke-dashoffset:0;stroke-opacity:1;marker:none;color-rendering:auto;image-rendering:auto;shape-rendering:auto;text-rendering:auto;enable-background:accumulate" />
    <path
       id="rect4822"
       d="M 2228.96875,-249.30625 V -228.8979167 H 2333.304166 V -124.5625001 H 2353.714583 V -249.30625 Z"
       style="color:#000000;clip-rule:nonzero;display:inline;overflow:visible;visibility:visible;opacity:1;isolation:auto;mix-blend-mode:normal;color-interpolation:sRGB;color-interpolation-filters:linearRGB;solid-color:#000000;solid-opacity:1;fill:#ffffff;fill-opacity:1;fill-rule:nonzero;stroke:none;stroke-width:11.626666069;stroke-linecap:butt;stroke-linejoin:miter;stroke-miterlimit:10;stroke-dasharray:none;stroke-dashoffset:0;stroke-opacity:1;marker:none;color-rendering:auto;image-rendering:auto;shape-rendering:auto;text-rendering:auto;enable-background:accumulate"
       inkscape:connector-curvature="0" />
    <path
       id="rect4818"
       d="M 2194.710417,-215.05 V -194.6395834 H 2299.047917 V -90.30416667 H 2319.45625 V -215.05 Z"
       style="color:#000000;clip-rule:nonzero;display:inline;overflow:visible;visibility:visible;opacity:1;isolation:auto;mix-blend-mode:normal;color-interpolation:sRGB;color-interpolation-filters:linearRGB;solid-color:#000000;solid-opacity:1;fill:#ffffff;fill-opacity:1;fill-rule:nonzero;stroke:none;stroke-width:11.626666069;stroke-linecap:butt;stroke-linejoin:miter;stroke-miterlimit:10;stroke-dasharray:none;stroke-dashoffset:0;stroke-opacity:1;marker:none;color-rendering:auto;image-rendering:auto;shape-rendering:auto;text-rendering:auto;enable-background:accumulate"
       inkscape:connector-curvature="0" />
  </g>
  <g
     id="g4851"
     inkscape:export-filename="C:\bso\packages\bso-client\src\img\edit-episode.png"
     inkscape:export-xdpi="4.860000134"
     inkscape:export-ydpi="4.860000134">
    <rect
       inkscape:export-ydpi="4.860000134"
       inkscape:export-xdpi="4.860000134"
       y="-291.93573"
       x="2622.428467"
       height="426.6666565"
       width="426.6666565"
       id="rect4829"
       style="color:#000000;clip-rule:nonzero;display:inline;overflow:visible;visibility:visible;opacity:0.5440000048;isolation:auto;mix-blend-mode:normal;color-interpolation:sRGB;color-interpolation-filters:linearRGB;solid-color:#000000;solid-opacity:1;fill:none;fill-opacity:1;fill-rule:nonzero;stroke:none;stroke-width:53.3333320618;stroke-linecap:butt;stroke-linejoin:miter;stroke-miterlimit:4;stroke-dasharray:none;stroke-dashoffset:0;stroke-opacity:1;marker:none;color-rendering:auto;image-rendering:auto;shape-rendering:auto;text-rendering:auto;enable-background:accumulate" />
    <path
       sodipodi:nodetypes="ssssscccccccccscsssss"
       style="fill:#ffffff;fill-opacity:1;stroke:none;stroke-width:1.0666667223"
       d="M 2752.4756,95.7738686 C 2752.4756,84.69529115 2760.493175,42.34264921 2762.59041,42.34264921 2763.789805,42.34264921 2775.525843,53.1804119 2788.670495,66.42656631 2814.818181,92.77615999 2815.035972,91.74234474 2782.114987,97.54417705 2755.113844,102.3027248 2752.4756,102.1451473 2752.4756,95.7738686 Z M 2800.027344,53.5695478 2773.281029,26.66543855 2845.919382,-45.91114027 2918.557738,-118.4877193 2945.352064,-91.69339488 2972.146387,-64.89907061 2899.460023,7.787293226 2826.77366,80.47365703 Z M 2953.755123,-104.101999 2928.579006,-129.447272 2944.249461,-143.8917937 C 2952.868211,-151.8362805 2962.539312,-158.3363154 2965.740793,-158.3363154 2973.265949,-158.3363154 3011.974261,-119.7010724 3011.974261,-112.1901211 3011.974261,-105.4595369 2988.785142,-78.75672587 2982.940203,-78.75672587 2980.735275,-78.75672587 2967.601988,-90.16209867 2953.755123,-104.101999 Z"
       id="path4831"
       inkscape:connector-curvature="0"
       inkscape:export-xdpi="4.860000134"
       inkscape:export-ydpi="4.860000134" />
    <rect
       style="color:#000000;clip-rule:nonzero;display:inline;overflow:visible;visibility:visible;opacity:1;isolation:auto;mix-blend-mode:normal;color-interpolation:sRGB;color-interpolation-filters:linearRGB;solid-color:#000000;solid-opacity:1;fill:#ffffff;fill-opacity:1;fill-rule:nonzero;stroke:none;stroke-width:11.626666069;stroke-linecap:butt;stroke-linejoin:miter;stroke-miterlimit:10;stroke-dasharray:none;stroke-dashoffset:0;stroke-opacity:1;marker:none;color-rendering:auto;image-rendering:auto;shape-rendering:auto;text-rendering:auto;enable-background:accumulate"
       id="rect4833"
       width="124.7457581"
       height="124.7457581"
       x="2706.784424"
       y="-207.5921783" />
  </g>
  <g
     id="g4183"
     inkscape:export-filename="C:\bso\packages\bso-client\src\img\tick.png"
     inkscape:export-xdpi="4.860000134"
     inkscape:export-ydpi="4.860000134">
    <rect
       style="color:#000000;clip-rule:nonzero;display:inline;overflow:visible;visibility:visible;opacity:0.5440000048;isolation:auto;mix-blend-mode:normal;color-interpolation:sRGB;color-interpolation-filters:linearRGB;solid-color:#000000;solid-opacity:1;fill:none;fill-opacity:1;fill-rule:nonzero;stroke:none;stroke-width:53.3333320618;stroke-linecap:butt;stroke-linejoin:miter;stroke-miterlimit:4;stroke-dasharray:none;stroke-dashoffset:0;stroke-opacity:1;marker:none;color-rendering:auto;image-rendering:auto;shape-rendering:auto;text-rendering:auto;enable-background:accumulate"
       id="rect4169"
       width="426.6666565"
       height="426.6666565"
       x="3342.055176"
       y="-291.93573"
       inkscape:export-filename="C:\bso\packages\bso-client\src\img\globe.png"
       inkscape:export-xdpi="4.860000134"
       inkscape:export-ydpi="4.860000134" />
    <path
       inkscape:connector-curvature="0"
       id="path4181"
       d="M 3412.105326,-45.98881354 3525.11587,67.02172994 3698.716609,-233.6635695"
       style="fill:none;fill-rule:evenodd;stroke:#ffffff;stroke-width:30.6258335114;stroke-linecap:round;stroke-linejoin:miter;stroke-miterlimit:10;stroke-dasharray:none;stroke-opacity:1" />
  </g>
  <g
     id="g4199"
     inkscape:export-filename="C:\bso\packages\bso-client\src\img\hamburger.png"
     inkscape:export-xdpi="4.860000134"
     inkscape:export-ydpi="4.860000134">
    <rect
       style="color:#000000;clip-rule:nonzero;display:inline;overflow:visible;visibility:visible;opacity:0.5440000048;isolation:auto;mix-blend-mode:normal;color-interpolation:sRGB;color-interpolation-filters:linearRGB;solid-color:#000000;solid-opacity:1;fill:none;fill-opacity:1;fill-rule:nonzero;stroke:none;stroke-width:53.3333320618;stroke-linecap:butt;stroke-linejoin:miter;stroke-miterlimit:4;stroke-dasharray:none;stroke-dashoffset:0;stroke-opacity:1;marker:none;color-rendering:auto;image-rendering:auto;shape-rendering:auto;text-rendering:auto;enable-background:accumulate"
       id="rect4172"
       width="426.6666565"
       height="426.6666565"
       x="-1317.052612"
       y="-684.4987183"
       inkscape:export-filename="C:\bso\packages\bso-client\src\img\globe.png"
       inkscape:export-xdpi="4.860000134"
       inkscape:export-ydpi="4.860000134" />
    <g
       transform="translate(-27.86775716,443.1226725)"
       id="g4194">
      <rect
         style="color:#000000;clip-rule:nonzero;display:inline;overflow:visible;visibility:visible;opacity:1;isolation:auto;mix-blend-mode:normal;color-interpolation:sRGB;color-interpolation-filters:linearRGB;solid-color:#000000;solid-opacity:1;fill:#ffffff;fill-opacity:1;fill-rule:nonzero;stroke:none;stroke-width:42.6666679382;stroke-linecap:round;stroke-linejoin:miter;stroke-miterlimit:10;stroke-dasharray:none;stroke-dashoffset:0;stroke-opacity:1;marker:none;color-rendering:auto;image-rendering:auto;shape-rendering:auto;text-rendering:auto;enable-background:accumulate"
         id="rect4180"
         width="332.3769226"
         height="52.48056793"
         x="-1242.039917"
         y="-1077.061646" />
      <rect
         y="-940.5283203"
         x="-1242.039917"
         height="52.48056793"
         width="332.3769226"
         id="rect4186"
         style="color:#000000;clip-rule:nonzero;display:inline;overflow:visible;visibility:visible;opacity:1;isolation:auto;mix-blend-mode:normal;color-interpolation:sRGB;color-interpolation-filters:linearRGB;solid-color:#000000;solid-opacity:1;fill:#ffffff;fill-opacity:1;fill-rule:nonzero;stroke:none;stroke-width:42.6666679382;stroke-linecap:round;stroke-linejoin:miter;stroke-miterlimit:10;stroke-dasharray:none;stroke-dashoffset:0;stroke-opacity:1;marker:none;color-rendering:auto;image-rendering:auto;shape-rendering:auto;text-rendering:auto;enable-background:accumulate" />
      <rect
         style="color:#000000;clip-rule:nonzero;display:inline;overflow:visible;visibility:visible;opacity:1;isolation:auto;mix-blend-mode:normal;color-interpolation:sRGB;color-interpolation-filters:linearRGB;solid-color:#000000;solid-opacity:1;fill:#ffffff;fill-opacity:1;fill-rule:nonzero;stroke:none;stroke-width:42.6666679382;stroke-linecap:round;stroke-linejoin:miter;stroke-miterlimit:10;stroke-dasharray:none;stroke-dashoffset:0;stroke-opacity:1;marker:none;color-rendering:auto;image-rendering:auto;shape-rendering:auto;text-rendering:auto;enable-background:accumulate"
         id="rect4188"
         width="332.3769226"
         height="52.48056793"
         x="-1242.039917"
         y="-803.9949951" />
    </g>
  </g>
  <g
     id="g4197"
     inkscape:export-filename="C:\bso\packages\bso-client\src\img\create.png"
     inkscape:export-xdpi="4.860000134"
     inkscape:export-ydpi="4.860000134">
    <rect
       inkscape:export-ydpi="4.860000134"
       inkscape:export-xdpi="4.860000134"
       inkscape:export-filename="C:\bso\packages\bso-client\src\img\globe.png"
       y="276.1890869"
       x="-1276.482178"
       height="426.6666565"
       width="426.6666565"
       id="rect4178"
       style="color:#000000;clip-rule:nonzero;display:inline;overflow:visible;visibility:visible;opacity:0.5440000048;isolation:auto;mix-blend-mode:normal;color-interpolation:sRGB;color-interpolation-filters:linearRGB;solid-color:#000000;solid-opacity:1;fill:none;fill-opacity:1;fill-rule:nonzero;stroke:none;stroke-width:53.3333320618;stroke-linecap:butt;stroke-linejoin:miter;stroke-miterlimit:4;stroke-dasharray:none;stroke-dashoffset:0;stroke-opacity:1;marker:none;color-rendering:auto;image-rendering:auto;shape-rendering:auto;text-rendering:auto;enable-background:accumulate" />
    <rect
       transform="rotate(90)"
       style="color:#000000;clip-rule:nonzero;display:inline;overflow:visible;visibility:visible;opacity:1;isolation:auto;mix-blend-mode:normal;color-interpolation:sRGB;color-interpolation-filters:linearRGB;solid-color:#000000;solid-opacity:1;fill:#ffffff;fill-opacity:1;fill-rule:nonzero;stroke:none;stroke-width:42.6666679382;stroke-linecap:round;stroke-linejoin:miter;stroke-miterlimit:10;stroke-dasharray:none;stroke-dashoffset:0;stroke-opacity:1;marker:none;color-rendering:auto;image-rendering:auto;shape-rendering:auto;text-rendering:auto;enable-background:accumulate"
       id="rect4182"
       width="332.3769226"
       height="52.48056793"
       x="323.3339539"
       y="1036.908569" />
    <rect
       y="463.282135"
       x="-1229.33728"
       height="52.48056793"
       width="332.3769226"
       id="rect4184"
       style="color:#000000;clip-rule:nonzero;display:inline;overflow:visible;visibility:visible;opacity:1;isolation:auto;mix-blend-mode:normal;color-interpolation:sRGB;color-interpolation-filters:linearRGB;solid-color:#000000;solid-opacity:1;fill:#ffffff;fill-opacity:1;fill-rule:nonzero;stroke:none;stroke-width:42.6666679382;stroke-linecap:round;stroke-linejoin:miter;stroke-miterlimit:10;stroke-dasharray:none;stroke-dashoffset:0;stroke-opacity:1;marker:none;color-rendering:auto;image-rendering:auto;shape-rendering:auto;text-rendering:auto;enable-background:accumulate" />
  </g>
  <g
     id="g4219"
     inkscape:export-filename="C:\bso\packages\bso-client\src\img\move-up.png"
     inkscape:export-xdpi="4.860000134"
     inkscape:export-ydpi="4.860000134">
    <path
       inkscape:transform-center-y="-44.02783434"
       d="M -318.5895745,-1486.721931 -623.6233161,-1486.721931 -471.1064453,-1750.888901 Z"
       inkscape:randomized="0"
       inkscape:rounded="0"
       inkscape:flatsided="true"
       sodipodi:arg2="1.570796327"
       sodipodi:arg1="0.5235987756"
       sodipodi:r2="88.05565643"
       sodipodi:r1="176.1113129"
       sodipodi:cy="-1574.777588"
       sodipodi:cx="-471.1064453"
       sodipodi:sides="3"
       id="path4202"
       style="color:#000000;clip-rule:nonzero;display:inline;overflow:visible;visibility:visible;opacity:1;isolation:auto;mix-blend-mode:normal;color-interpolation:sRGB;color-interpolation-filters:linearRGB;solid-color:#000000;solid-opacity:1;fill:#ffffff;fill-opacity:1;fill-rule:nonzero;stroke:none;stroke-width:42.6666679382;stroke-linecap:round;stroke-linejoin:miter;stroke-miterlimit:10;stroke-dasharray:none;stroke-dashoffset:0;stroke-opacity:1;marker:none;color-rendering:auto;image-rendering:auto;shape-rendering:auto;text-rendering:auto;enable-background:accumulate"
       sodipodi:type="star" />
    <rect
       style="color:#000000;clip-rule:nonzero;display:inline;overflow:visible;visibility:visible;opacity:0.5440000048;isolation:auto;mix-blend-mode:normal;color-interpolation:sRGB;color-interpolation-filters:linearRGB;solid-color:#000000;solid-opacity:1;fill:none;fill-opacity:1;fill-rule:nonzero;stroke:none;stroke-width:53.3333320618;stroke-linecap:butt;stroke-linejoin:miter;stroke-miterlimit:4;stroke-dasharray:none;stroke-dashoffset:0;stroke-opacity:1;marker:none;color-rendering:auto;image-rendering:auto;shape-rendering:auto;text-rendering:auto;enable-background:accumulate"
       id="rect4206"
       width="426.6666565"
       height="426.6666565"
       x="-684.4397583"
       y="-1832.138794"
       inkscape:export-filename="C:\bso\packages\bso-client\src\img\globe.png"
       inkscape:export-xdpi="4.860000134"
       inkscape:export-ydpi="4.860000134" />
  </g>
  <g
     id="g4223"
     inkscape:export-filename="C:\bso\packages\bso-client\src\img\move-down.png"
     inkscape:export-xdpi="4.860000134"
     inkscape:export-ydpi="4.860000134">
    <path
       inkscape:transform-center-y="44.02782176"
       transform="scale(-1)"
       sodipodi:type="star"
       style="color:#000000;clip-rule:nonzero;display:inline;overflow:visible;visibility:visible;opacity:1;isolation:auto;mix-blend-mode:normal;color-interpolation:sRGB;color-interpolation-filters:linearRGB;solid-color:#000000;solid-opacity:1;fill:#ffffff;fill-opacity:1;fill-rule:nonzero;stroke:none;stroke-width:42.6666679382;stroke-linecap:round;stroke-linejoin:miter;stroke-miterlimit:10;stroke-dasharray:none;stroke-dashoffset:0;stroke-opacity:1;marker:none;color-rendering:auto;image-rendering:auto;shape-rendering:auto;text-rendering:auto;enable-background:accumulate"
       id="path4215"
       sodipodi:sides="3"
       sodipodi:cx="-449.7723999"
       sodipodi:cy="1659.430298"
       sodipodi:r1="176.1113129"
       sodipodi:r2="88.05565643"
       sodipodi:arg1="0.5235987756"
       sodipodi:arg2="1.570796327"
       inkscape:flatsided="true"
       inkscape:rounded="0"
       inkscape:randomized="0"
       d="M -297.2555291,1747.485954 -602.2892707,1747.485954 -449.7723999,1483.318985 Z" />
    <rect
       inkscape:export-ydpi="4.860000134"
       inkscape:export-xdpi="4.860000134"
       inkscape:export-filename="C:\bso\packages\bso-client\src\img\globe.png"
       y="-1828.735962"
       x="236.4390564"
       height="426.6666565"
       width="426.6666565"
       id="rect4217"
       style="color:#000000;clip-rule:nonzero;display:inline;overflow:visible;visibility:visible;opacity:0.5440000048;isolation:auto;mix-blend-mode:normal;color-interpolation:sRGB;color-interpolation-filters:linearRGB;solid-color:#000000;solid-opacity:1;fill:none;fill-opacity:1;fill-rule:nonzero;stroke:none;stroke-width:53.3333320618;stroke-linecap:butt;stroke-linejoin:miter;stroke-miterlimit:4;stroke-dasharray:none;stroke-dashoffset:0;stroke-opacity:1;marker:none;color-rendering:auto;image-rendering:auto;shape-rendering:auto;text-rendering:auto;enable-background:accumulate" />
  </g>
  <g
     id="g4282"
     inkscape:export-filename="C:\bso\packages\bso-client\src\img\published.png"
     inkscape:export-xdpi="4.860000134"
     inkscape:export-ydpi="4.860000134">
    <g
       style="fill:#ffffff;fill-opacity:1;stroke:none"
       transform="matrix(14.07782793,0,0,14.07782793,1347.973855,-1795.598802)"
       id="g4239">
      <path
         style="fill:#ffffff;fill-opacity:1;stroke:none;stroke-width:1.0666667223"
         inkscape:connector-curvature="0"
         d="M 24.32,12.16 C 24.10666667,11.84 19.2,5.333333333 12.8,5.333333333 6.4,5.333333333 1.493333333,11.84 1.28,12.16 0.96,12.58666667 0.96,13.01333333 1.28,13.44 1.493333333,13.76 6.4,20.26666667 12.8,20.26666667 19.2,20.26666667 24.10666667,13.76 24.32,13.44 24.64,13.01333333 24.64,12.58666667 24.32,12.16 Z M 12.8,18.13333333 C 9.813333333,18.13333333 7.466666667,15.78666667 7.466666667,12.8 7.466666667,9.813333333 9.813333333,7.466666667 12.8,7.466666667 15.78666667,7.466666667 18.13333333,9.813333333 18.13333333,12.8 18.13333333,15.78666667 15.78666667,18.13333333 12.8,18.13333333 Z"
         id="path4229" />
      <circle
         style="fill:#ffffff;fill-opacity:1;stroke:none;stroke-width:1.0666667223"
         cx="12.80000019"
         cy="12.80000019"
         r="2.666666746"
         id="circle4231" />
    </g>
    <rect
       style="color:#000000;clip-rule:nonzero;display:inline;overflow:visible;visibility:visible;opacity:0.5440000048;isolation:auto;mix-blend-mode:normal;color-interpolation:sRGB;color-interpolation-filters:linearRGB;solid-color:#000000;solid-opacity:1;fill:none;fill-opacity:1;fill-rule:nonzero;stroke:none;stroke-width:53.3333320618;stroke-linecap:butt;stroke-linejoin:miter;stroke-miterlimit:4;stroke-dasharray:none;stroke-dashoffset:0;stroke-opacity:1;marker:none;color-rendering:auto;image-rendering:auto;shape-rendering:auto;text-rendering:auto;enable-background:accumulate"
       id="rect4264"
       width="426.6666565"
       height="426.6666565"
       x="1314.83667"
       y="-1828.735962"
       inkscape:export-filename="C:\bso\packages\bso-client\src\img\globe.png"
       inkscape:export-xdpi="4.860000134"
       inkscape:export-ydpi="4.860000134" />
  </g>
  <g
     id="g4276"
     inkscape:export-filename="C:\bso\packages\bso-client\src\img\unpublished.png"
     inkscape:export-xdpi="4.860000134"
     inkscape:export-ydpi="4.860000134">
    <g
       style="fill:#ffffff;fill-opacity:1;stroke:none;stroke-opacity:1"
       transform="matrix(3.400453769,0,0,3.400453769,2083.101241,-1796.760139)"
       id="g4245">
      <path
         style="fill:#ffffff;fill-opacity:1;stroke:none;stroke-width:1.0666667223;stroke-opacity:1"
         inkscape:connector-curvature="0"
         d="M 94.82666667,9.92 74.02666667,30.72 C 67.73333333,27.84 61.01333333,25.92 54.18666667,25.92 30.50666667,25.92 10.56,45.65333333 3.946666667,53.01333333 2.56,54.50666667 2.56,56.85333333 3.946666667,58.34666667 7.786666667,62.61333333 16.32,71.04 27.41333333,77.33333333 L 13.97333333,90.77333333 19.94666667,96.74666667 100.8,15.89333333 Z M 55.78666667,48.96 C 55.36,48.96 54.82666667,48.85333333 54.29333333,48.85333333 50.56,48.85333333 47.57333333,51.84 47.57333333,55.57333333 47.57333333,56.10666667 47.57333333,56.64 47.68,57.06666667 L 37.54666667,67.2 C 35.30666667,63.89333333 33.92,59.94666667 33.92,55.57333333 33.92,44.26666667 43.09333333,35.09333333 54.4,35.09333333 58.77333333,35.09333333 62.72,36.48 66.02666667,38.72 Z"
         id="path4247" />
      <path
         style="fill:#ffffff;fill-opacity:1;stroke:none;stroke-width:1.0666667223;stroke-opacity:1"
         inkscape:connector-curvature="0"
         d="M 104.32,52.90666667 C 101.2266667,49.70666667 95.25333333,43.94666667 87.78666667,38.72 L 74.34666667,52.16 C 74.56,53.33333333 74.66666667,54.50666667 74.66666667,55.68 74.66666667,66.98666667 65.49333333,76.16 54.18666667,76.16 53.01333333,76.16 51.84,76.05333333 50.66666667,75.84 L 42.77333333,83.73333333 C 46.4,84.69333333 50.24,85.22666667 54.18666667,85.22666667 77.65333333,85.22666667 97.6,65.92 104.32,58.56 105.8133333,56.85333333 105.8133333,54.50666667 104.32,52.90666667 Z"
         id="path4249" />
    </g>
    <rect
       inkscape:export-ydpi="4.860000134"
       inkscape:export-xdpi="4.860000134"
       inkscape:export-filename="C:\bso\packages\bso-client\src\img\globe.png"
       y="-1828.735962"
       x="2053.963135"
       height="426.6666565"
       width="426.6666565"
       id="rect4274"
       style="color:#000000;clip-rule:nonzero;display:inline;overflow:visible;visibility:visible;opacity:0.5440000048;isolation:auto;mix-blend-mode:normal;color-interpolation:sRGB;color-interpolation-filters:linearRGB;solid-color:#000000;solid-opacity:1;fill:none;fill-opacity:1;fill-rule:nonzero;stroke:none;stroke-width:53.3333320618;stroke-linecap:butt;stroke-linejoin:miter;stroke-miterlimit:4;stroke-dasharray:none;stroke-dashoffset:0;stroke-opacity:1;marker:none;color-rendering:auto;image-rendering:auto;shape-rendering:auto;text-rendering:auto;enable-background:accumulate" />
  </g>
  <g
     id="g4309"
     inkscape:export-filename="C:\bso\packages\bso-client\src\img\grow.png"
     inkscape:export-xdpi="4.860000134"
     inkscape:export-ydpi="4.860000134">
    <rect
       style="color:#000000;clip-rule:nonzero;display:inline;overflow:visible;visibility:visible;opacity:0.5440000048;isolation:auto;mix-blend-mode:normal;color-interpolation:sRGB;color-interpolation-filters:linearRGB;solid-color:#000000;solid-opacity:1;fill:none;fill-opacity:1;fill-rule:nonzero;stroke:none;stroke-width:53.3333320618;stroke-linecap:butt;stroke-linejoin:miter;stroke-miterlimit:4;stroke-dasharray:none;stroke-dashoffset:0;stroke-opacity:1;marker:none;color-rendering:auto;image-rendering:auto;shape-rendering:auto;text-rendering:auto;enable-background:accumulate"
       id="rect4290"
       width="426.6666565"
       height="426.6666565"
       x="-1572.872437"
       y="-1788.36377"
       inkscape:export-xdpi="4.860000134"
       inkscape:export-ydpi="4.860000134" />
    <path
       id="rect4294"
       d="M -1496.9875,-1749.2375 C -1517.352169,-1749.2375 -1533.745834,-1732.843836 -1533.745834,-1712.479167 V -1437.583333 C -1533.745834,-1417.218665 -1517.352169,-1400.822916 -1496.9875,-1400.822916 H -1222.091667 C -1201.726997,-1400.822916 -1185.33125,-1417.218665 -1185.33125,-1437.583333 V -1712.479167 C -1185.33125,-1732.843836 -1201.726997,-1749.2375 -1222.091667,-1749.2375 Z M -1445.5875,-1640.327084 H -1273.489583 L -1359.539583,-1491.2875 Z"
       style="color:#000000;clip-rule:nonzero;display:inline;overflow:visible;visibility:visible;opacity:1;isolation:auto;mix-blend-mode:normal;color-interpolation:sRGB;color-interpolation-filters:linearRGB;solid-color:#000000;solid-opacity:1;fill:#ffffff;fill-opacity:1;fill-rule:nonzero;stroke:none;stroke-width:42.6666679382;stroke-linecap:round;stroke-linejoin:miter;stroke-miterlimit:10;stroke-dasharray:none;stroke-dashoffset:0;stroke-opacity:1;marker:none;color-rendering:auto;image-rendering:auto;shape-rendering:auto;text-rendering:auto;enable-background:accumulate"
       inkscape:connector-curvature="0" />
  </g>
  <g
     id="g4313"
     transform="rotate(180,-1625.644652,-1575.030468)"
     inkscape:export-filename="C:\bso\packages\bso-client\src\img\shrink.png"
     inkscape:export-xdpi="4.860000134"
     inkscape:export-ydpi="4.860000134">
    <rect
       inkscape:export-ydpi="4.860000134"
       inkscape:export-xdpi="4.860000134"
       y="-1788.36377"
       x="-1572.872437"
       height="426.6666565"
       width="426.6666565"
       id="rect4315"
       style="color:#000000;clip-rule:nonzero;display:inline;overflow:visible;visibility:visible;opacity:0.5440000048;isolation:auto;mix-blend-mode:normal;color-interpolation:sRGB;color-interpolation-filters:linearRGB;solid-color:#000000;solid-opacity:1;fill:none;fill-opacity:1;fill-rule:nonzero;stroke:none;stroke-width:53.3333320618;stroke-linecap:butt;stroke-linejoin:miter;stroke-miterlimit:4;stroke-dasharray:none;stroke-dashoffset:0;stroke-opacity:1;marker:none;color-rendering:auto;image-rendering:auto;shape-rendering:auto;text-rendering:auto;enable-background:accumulate" />
    <path
       style="color:#000000;clip-rule:nonzero;display:inline;overflow:visible;visibility:visible;opacity:1;isolation:auto;mix-blend-mode:normal;color-interpolation:sRGB;color-interpolation-filters:linearRGB;solid-color:#000000;solid-opacity:1;fill:#ffffff;fill-opacity:1;fill-rule:nonzero;stroke:none;stroke-width:42.6666679382;stroke-linecap:round;stroke-linejoin:miter;stroke-miterlimit:10;stroke-dasharray:none;stroke-dashoffset:0;stroke-opacity:1;marker:none;color-rendering:auto;image-rendering:auto;shape-rendering:auto;text-rendering:auto;enable-background:accumulate"
       d="M -1496.9875,-1749.2375 C -1517.352169,-1749.2375 -1533.745834,-1732.843836 -1533.745834,-1712.479167 V -1437.583333 C -1533.745834,-1417.218665 -1517.352169,-1400.822916 -1496.9875,-1400.822916 H -1222.091667 C -1201.726997,-1400.822916 -1185.33125,-1417.218665 -1185.33125,-1437.583333 V -1712.479167 C -1185.33125,-1732.843836 -1201.726997,-1749.2375 -1222.091667,-1749.2375 Z M -1445.5875,-1640.327084 H -1273.489583 L -1359.539583,-1491.2875 Z"
       id="path4317"
       inkscape:connector-curvature="0" />
  </g>
  <rect
     style="color:#000000;clip-rule:nonzero;display:inline;overflow:visible;visibility:visible;opacity:1;isolation:auto;mix-blend-mode:normal;color-interpolation:sRGB;color-interpolation-filters:linearRGB;solid-color:#000000;solid-opacity:1;vector-effect:none;fill:none;fill-opacity:1;fill-rule:nonzero;stroke:none;stroke-width:7.5590553284;stroke-linecap:butt;stroke-linejoin:miter;stroke-miterlimit:4;stroke-dasharray:none;stroke-dashoffset:0;stroke-opacity:1;marker:none;color-rendering:auto;image-rendering:auto;shape-rendering:auto;text-rendering:auto;enable-background:accumulate"
     id="rect873"
     width="686.5482178"
     height="686.5482178"
     x="-3958.24707"
     y="-4004.146729" />
</svg>
